<svg xmlns="http://www.w3.org/2000/svg" viewBox="0 0 46.9 46.9" id="user-management"><path fill="#ffb703" d="M29.42 34.6a12.3 12.3 0 0 1-12.29 12.3H12.3a12.25 12.25 0 0 1-8.69-3.6 12.29 12.29 0 0 1 8.7-21h4.83a12.29 12.29 0 0 1 12.29 12.29Z"></path><circle cx="14.71" cy="7.87" r="7.87" fill="#fb8500"></circle><path fill="#4361ee" d="M46.28 14.08h-1.41a.62.62 0 0 1-.6-.47 7.94 7.94 0 0 0-.79-1.9.62.62 0 0 1 .1-.75l1-1a.62.62 0 0 0 0-.89l-1.45-1.45a.63.63 0 0 0-.88 0l-1 1a.62.62 0 0 1-.76.1 8.37 8.37 0 0 0-1.9-.79.61.61 0 0 1-.46-.6v-1.4a.63.63 0 0 0-.63-.62h-2.05a.62.62 0 0 0-.62.62v1.4a.61.61 0 0 1-.47.6 8.37 8.37 0 0 0-1.9.79.61.61 0 0 1-.75-.1l-1-1a.64.64 0 0 0-.89 0l-1.45 1.45a.64.64 0 0 0 0 .89l1 1a.61.61 0 0 1 .1.75 8.37 8.37 0 0 0-.79 1.9.62.62 0 0 1-.6.47h-1.37a.62.62 0 0 0-.62.62v2a.62.62 0 0 0 .62.63h1.4a.62.62 0 0 1 .6.46 8.37 8.37 0 0 0 .79 1.9.62.62 0 0 1-.1.76l-1 1a.63.63 0 0 0 0 .88l1.45 1.45a.62.62 0 0 0 .89 0l1-1a.62.62 0 0 1 .75-.1 7.94 7.94 0 0 0 1.9.79.63.63 0 0 1 .47.6v1.41a.62.62 0 0 0 .62.62h2.05a.63.63 0 0 0 .63-.62v-1.41a.63.63 0 0 1 .46-.6 7.94 7.94 0 0 0 1.9-.79.63.63 0 0 1 .76.1l1 1a.61.61 0 0 0 .88 0l1.45-1.45a.61.61 0 0 0 0-.88l-1-1a.63.63 0 0 1-.1-.76 7.94 7.94 0 0 0 .79-1.9.62.62 0 0 1 .6-.46h1.41a.63.63 0 0 0 .62-.63v-2a.62.62 0 0 0-.65-.62Zm-9.8 4.71a3.06 3.06 0 1 1 3.06-3.06 3.06 3.06 0 0 1-3.06 3.07Z"></path></svg>